<?xml version="1.0" standalone="no"?>
<!DOCTYPE svg PUBLIC "-//W3C//DTD SVG 20010904//EN"
 "http://www.w3.org/TR/2001/REC-SVG-20010904/DTD/svg10.dtd">
<svg version="1.0" xmlns="http://www.w3.org/2000/svg"
 width="1200.000000pt" height="1200.000000pt" viewBox="0 0 1200.000000 1200.000000"
 preserveAspectRatio="xMidYMid meet">

<g transform="translate(0.000000,1200.000000) scale(0.100000,-0.100000)"
fill="#000000" stroke="none">
<path d="M7006 9609 c-65 -15 -153 -69 -206 -125 -91 -96 -133 -231 -112 -354
17 -91 63 -182 122 -240 96 -93 294 -168 505 -191 208 -22 356 24 405 125 25
52 27 140 4 217 -49 169 -237 422 -381 512 -94 60 -227 82 -337 56z"/>
<path d="M3563 8895 c-84 -18 -226 -93 -296 -156 -79 -71 -111 -134 -111 -224
-1 -120 61 -217 168 -266 61 -28 167 -26 231 5 129 60 237 272 238 467 1 150
-76 208 -230 174z"/>
<path d="M5136 7975 c-98 -27 -178 -75 -256 -154 -123 -123 -178 -268 -166
-436 12 -179 96 -327 300 -530 266 -265 519 -372 684 -289 135 67 202 247 203
544 1 336 -87 610 -239 740 -60 51 -163 105 -238 125 -71 18 -220 18 -288 0z"/>
<path d="M9411 7025 c-74 -21 -196 -86 -266 -143 -150 -122 -168 -310 -41
-438 91 -91 222 -110 334 -49 61 33 80 52 126 128 56 93 87 198 93 307 5 106
-8 146 -59 183 -35 26 -117 31 -187 12z"/>
<path d="M7273 6290 c-283 -74 -685 -416 -784 -667 -17 -43 -23 -79 -23 -138
-1 -70 3 -86 26 -127 49 -83 147 -151 284 -197 159 -53 399 -78 586 -61 238
22 358 70 478 190 191 190 233 465 108 703 -44 85 -165 205 -247 246 -136 69
-290 87 -428 51z"/>
<path d="M2955 6055 c-189 -51 -306 -161 -425 -400 -106 -213 -156 -411 -147
-582 8 -160 75 -259 197 -293 57 -16 189 -11 276 10 288 69 616 283 717 468
35 65 67 189 67 262 0 72 -32 197 -67 263 -38 71 -155 186 -229 225 -112 58
-274 78 -389 47z"/>
<path d="M7856 4240 c-121 -21 -241 -114 -294 -228 -24 -50 -27 -69 -27 -157
0 -91 3 -106 31 -165 69 -147 230 -241 476 -280 101 -16 280 -9 333 14 115 49
151 150 105 297 -49 159 -214 378 -346 462 -80 50 -188 72 -278 57z"/>
<path d="M5394 3630 c-184 -27 -319 -132 -408 -315 -131 -268 -171 -608 -94
-787 26 -61 93 -121 153 -138 178 -50 502 96 735 329 139 140 190 248 190 406
0 139 -42 244 -140 348 -113 121 -279 181 -436 157z"/>
</g>
</svg>
